<svg xmlns="http://www.w3.org/2000/svg" width="438.348" height="438.348" viewBox="0 0 438.348 438.348">
  <path id="facebook" d="M438.348,219.174C438.348,98.115,340.233,0,219.174,0S0,98.115,0,219.174,98.115,438.348,219.174,438.348c1.284,0,2.568,0,3.853-.086V267.718H175.938V212.838h47.088v-40.41c0-46.831,28.6-72.345,70.375-72.345a382.509,382.509,0,0,1,42.208,2.14V151.2H306.843c-22.688,0-27.14,10.787-27.14,26.626v34.931h54.365l-7.106,54.879H279.7v162.24C371.311,403.588,438.348,319.258,438.348,219.174Z" fill="#f7f7fb"/>
</svg>
