<svg id="information" xmlns="http://www.w3.org/2000/svg" width="259.504" height="259.504" viewBox="0 0 259.504 259.504">
  <path id="Path_33" data-name="Path 33" d="M129.752,0A129.752,129.752,0,1,0,259.5,129.753,129.9,129.9,0,0,0,129.752,0Zm0,235.913a106.161,106.161,0,1,1,106.161-106.16A106.28,106.28,0,0,1,129.752,235.913Z" fill="#5380d1"/>
  <path id="Path_34" data-name="Path 34" d="M160.726,70a15.728,15.728,0,1,0,15.724,15.735A15.747,15.747,0,0,0,160.726,70Z" transform="translate(-30.976 -14.954)" fill="#5380d1"/>
  <path id="Path_35" data-name="Path 35" d="M161.8,140A11.8,11.8,0,0,0,150,151.8V222.57a11.8,11.8,0,0,0,23.591,0V151.8A11.8,11.8,0,0,0,161.8,140Z" transform="translate(-32.043 -29.907)" fill="#5380d1"/>
</svg>
