<svg id="instagram" xmlns="http://www.w3.org/2000/svg" width="454.169" height="454.169" viewBox="0 0 454.169 454.169">
  <path id="Path_2" data-name="Path 2" d="M293.931,250.466A43.465,43.465,0,1,1,250.466,207,43.465,43.465,0,0,1,293.931,250.466Zm0,0" transform="translate(-23.381 -23.381)" fill="#f7f7fb"/>
  <path id="Path_3" data-name="Path 3" d="M344.039,165.485a43.181,43.181,0,0,0-24.747-24.747c-4.595-1.785-11.5-3.909-24.21-4.487-13.753-.627-17.876-.762-52.693-.762s-38.944.132-52.693.759c-12.713.582-19.619,2.706-24.21,4.491a43.2,43.2,0,0,0-24.751,24.747c-1.784,4.595-3.909,11.5-4.487,24.214-.627,13.749-.762,17.872-.762,52.693s.135,38.94.762,52.693c.579,12.713,2.7,19.615,4.487,24.21a43.182,43.182,0,0,0,24.747,24.747c4.595,1.788,11.5,3.912,24.214,4.491,13.749.627,17.869.759,52.689.759s38.947-.132,52.693-.759c12.713-.578,19.619-2.7,24.214-4.491A43.181,43.181,0,0,0,344.039,319.3c1.784-4.595,3.908-11.5,4.491-24.21.627-13.753.759-17.876.759-52.693s-.132-38.944-.759-52.693C347.951,176.986,345.826,170.08,344.039,165.485ZM242.388,309.347a66.959,66.959,0,1,1,66.959-66.959A66.959,66.959,0,0,1,242.388,309.347Zm69.606-120.917a15.648,15.648,0,1,1,15.648-15.648A15.649,15.649,0,0,1,311.994,188.431Zm0,0" transform="translate(-15.303 -15.303)" fill="#f7f7fb"/>
  <path id="Path_4" data-name="Path 4" d="M227.085,0C101.689,0,0,101.689,0,227.085S101.689,454.169,227.085,454.169,454.169,352.481,454.169,227.085,352.481,0,227.085,0ZM356.694,280.844c-.631,13.881-2.838,23.358-6.06,31.653A66.675,66.675,0,0,1,312.5,350.634c-8.292,3.222-17.772,5.426-31.65,6.06-13.905.634-18.347.787-53.76.787s-39.855-.152-53.764-.787c-13.877-.634-23.358-2.838-31.65-6.06A66.674,66.674,0,0,1,103.538,312.5c-3.222-8.292-5.43-17.772-6.06-31.65-.641-13.909-.79-18.351-.79-53.764s.149-39.855.787-53.76c.631-13.881,2.834-23.358,6.057-31.653a66.719,66.719,0,0,1,38.14-38.136c8.3-3.222,17.772-5.426,31.653-6.06,13.905-.634,18.347-.787,53.76-.787s39.855.152,53.76.79c13.881.631,23.358,2.834,31.653,6.053a66.693,66.693,0,0,1,38.136,38.14c3.226,8.3,5.43,17.772,6.064,31.653.634,13.905.783,18.347.783,53.76S357.332,266.939,356.694,280.844Zm0,0" fill="#f7f7fb"/>
</svg>
