<svg xmlns="http://www.w3.org/2000/svg" width="480.572" height="480.575" viewBox="0 0 480.572 480.575">
  <g id="link" transform="translate(-0.001)">
    <g id="Group_27" data-name="Group 27" transform="translate(0.001)">
      <g id="Group_26" data-name="Group 26" transform="translate(0)">
        <path id="Path_9" data-name="Path 9" d="M240.281,0C107.579,0,0,107.586,0,240.283s107.578,240.292,240.28,240.292,240.292-107.59,240.292-240.292S372.982,0,240.281,0ZM361.012,197.52l-58.768,58.768a33.747,33.747,0,0,1-47.721,0l-2.3-2.3-6.257,6.257,2.3,2.3a33.785,33.785,0,0,1,0,47.726L189.5,369.037a33.753,33.753,0,0,1-47.734,0l-22.211-22.217a33.784,33.784,0,0,1,0-47.721l58.773-58.765a33.754,33.754,0,0,1,47.731,0l2.294,2.294,6.257-6.257-2.294-2.294a33.787,33.787,0,0,1-.008-47.721l58.773-58.768a33.749,33.749,0,0,1,47.731,0L361.023,149.8A33.786,33.786,0,0,1,361.012,197.52Z" transform="translate(-0.001)" fill="#c8c3cb"/>
        <path id="Path_10" data-name="Path 10" d="M183.452,183.278,171.4,195.33,152.7,176.64l12.053-12.053-2.433-2.433a9.355,9.355,0,0,0-13.225,0l-62.338,62.33a9.364,9.364,0,0,0,0,13.225l23.568,23.573a9.579,9.579,0,0,0,13.23.005l62.33-62.338a9.368,9.368,0,0,0,0-13.235Z" transform="translate(48.465 91.954)" fill="#c8c3cb"/>
        <path id="Path_11" data-name="Path 11" d="M232.717,91.771a9.36,9.36,0,0,0-13.24.005l-62.338,62.335a9.376,9.376,0,0,0,0,13.23l2.437,2.433,18.488-18.493,18.695,18.7-18.488,18.493,2.437,2.437a9.58,9.58,0,0,0,13.23-.005l62.334-62.33a9.37,9.37,0,0,0,0-13.23Z" transform="translate(89.06 51.354)" fill="#c8c3cb"/>
      </g>
    </g>
  </g>
</svg>
