<svg id="money" xmlns="http://www.w3.org/2000/svg" width="313.724" height="310.047" viewBox="0 0 313.724 310.047">
  <g id="Group_54" data-name="Group 54" transform="translate(183.794 155.146)">
    <g id="Group_53" data-name="Group 53">
      <path id="Path_24" data-name="Path 24" d="M325.689,300.414c-7.433,0-13.481-5.233-13.481-11.667s6.048-11.668,13.481-11.668,13.48,5.234,13.48,11.668a6.128,6.128,0,0,0,12.255,0c0-11.229-8.366-20.67-19.608-23.232v-3.186a6.128,6.128,0,1,0-12.255,0v3.186c-11.241,2.562-19.607,12-19.607,23.232,0,13.19,11.544,23.922,25.735,23.922,7.433,0,13.48,5.234,13.48,11.668s-6.047,11.668-13.48,11.668-13.481-5.234-13.481-11.668a6.127,6.127,0,1,0-12.254,0c0,11.228,8.366,20.669,19.607,23.232v2.647a6.128,6.128,0,0,0,12.255,0v-2.647c11.241-2.562,19.608-12,19.608-23.232C351.424,311.146,339.879,300.414,325.689,300.414Z" transform="translate(-299.954 -256.201)" fill="#5380d1"/>
    </g>
  </g>
  <g id="Group_56" data-name="Group 56" transform="translate(235.246 133.445)">
    <g id="Group_55" data-name="Group 55">
      <path id="Path_25" data-name="Path 25" d="M425.32,250.252a79.828,79.828,0,0,0-32.611-28.861,6.127,6.127,0,1,0-5.31,11.044,67.46,67.46,0,0,1,30.383,92.4,6.127,6.127,0,1,0,10.819,5.756,79.743,79.743,0,0,0-3.28-80.336Z" transform="translate(-383.925 -220.785)" fill="#5380d1"/>
    </g>
  </g>
  <g id="Group_58" data-name="Group 58" transform="translate(212.621 126.225)">
    <g id="Group_57" data-name="Group 57">
      <path id="Path_26" data-name="Path 26" d="M353.54,209h-.413a6.128,6.128,0,0,0,0,12.255h.385A6.127,6.127,0,0,0,353.54,209Z" transform="translate(-347 -209.001)" fill="#5380d1"/>
    </g>
  </g>
  <g id="Group_60" data-name="Group 60" transform="translate(129.902 165.263)">
    <g id="Group_59" data-name="Group 59">
      <path id="Path_27" data-name="Path 27" d="M262.495,374.114a67.459,67.459,0,0,1-30.382-92.4,6.127,6.127,0,1,0-10.818-5.756,79.691,79.691,0,0,0,35.891,109.2,6.128,6.128,0,1,0,5.309-11.046Z" transform="translate(-212.002 -272.711)" fill="#5380d1"/>
    </g>
  </g>
  <g id="Group_62" data-name="Group 62" transform="translate(193.857 273.281)">
    <g id="Group_61" data-name="Group 61">
      <path id="Path_28" data-name="Path 28" d="M322.887,449l-.354,0a6.128,6.128,0,0,0-.056,12.256h.411a6.127,6.127,0,1,0,0-12.255Z" transform="translate(-316.378 -448.999)" fill="#5380d1"/>
    </g>
  </g>
  <g id="Group_64" data-name="Group 64" transform="translate(0 0)">
    <g id="Group_63" data-name="Group 63">
      <path id="Path_29" data-name="Path 29" d="M237.381,108.494a28.126,28.126,0,0,0-2.722-5h15.952a28.186,28.186,0,0,0,0-56.372H201.542A28.167,28.167,0,0,0,178.307,3H28.186a28.186,28.186,0,1,0,0,56.372H77.254a28.107,28.107,0,0,0,0,31.862H61.274a28.169,28.169,0,0,0-17.515,50.245,28.135,28.135,0,0,0,0,44.117,28.135,28.135,0,0,0,0,44.117,28.169,28.169,0,0,0,17.515,50.245h72.211a104.143,104.143,0,1,0,103.9-171.464Zm13.23-49.122a15.931,15.931,0,1,1,0,31.862H100.489a15.931,15.931,0,0,1,0-31.862ZM28.186,47.117a15.931,15.931,0,0,1,0-31.862H178.307a15.931,15.931,0,0,1,0,31.862Zm33.088,56.372H211.4a15.923,15.923,0,0,1,6.952,1.6c-2.9-.243-5.828-.374-8.789-.374a103.842,103.842,0,0,0-73.712,30.636H61.274a15.931,15.931,0,0,1,0-31.863Zm0,44.117h64.1a103.869,103.869,0,0,0-15.749,31.863H61.274a15.931,15.931,0,0,1,0-31.863Zm0,44.117h45.539a104.248,104.248,0,0,0-.378,31.862H61.274a15.931,15.931,0,1,1,0-31.862Zm0,75.98a15.931,15.931,0,1,1,0-31.862h47.663a103.754,103.754,0,0,0,14.7,31.862Zm148.284,33.089a91.911,91.911,0,1,1,91.911-91.911A92.015,92.015,0,0,1,209.558,300.792Z" transform="translate(0 -3)" fill="#5380d1"/>
    </g>
  </g>
</svg>
