<svg xmlns="http://www.w3.org/2000/svg" width="457.73" height="457.73" viewBox="0 0 457.73 457.73">
  <path id="snapchat" d="M228.865,0C102.486,0,0,102.486,0,228.865S102.486,457.73,228.865,457.73,457.73,355.244,457.73,228.865,355.244,0,228.865,0ZM365.93,302.76c-1.648,3.841-9.059,9.3-34.978,13.3-2.123.325-2.944,3.087-4.208,8.874-.461,2.106-.925,4.177-1.564,6.352a3.462,3.462,0,0,1-3.709,2.769h-.321a32.5,32.5,0,0,1-5.8-.733,77.661,77.661,0,0,0-15.572-1.645,69.177,69.177,0,0,0-11.241.943c-7.777,1.3-14.381,5.958-21.372,10.9-10.159,7.187-20.646,14.6-36.993,14.6-.712,0-1.407-.024-2.109-.056-.447.038-.911.056-1.376.056-16.34,0-26.827-7.41-36.968-14.587-7-4.945-13.613-9.618-21.4-10.917a69.084,69.084,0,0,0-11.231-.943,76.991,76.991,0,0,0-15.575,1.757,34.077,34.077,0,0,1-5.8.838,3.651,3.651,0,0,1-4.03-2.881c-.646-2.2-1.111-4.33-1.565-6.4-1.159-5.3-1.98-8.563-4.2-8.905-25.916-4-33.337-9.464-34.988-13.337a4.981,4.981,0,0,1-.4-1.655,2.914,2.914,0,0,1,2.441-3.045c39.836-6.558,57.7-47.281,58.446-49.01.017-.042.038-.091.063-.136,2.438-4.941,2.912-9.233,1.425-12.75-2.734-6.44-11.654-9.272-17.555-11.144-1.442-.461-2.811-.891-3.894-1.32-11.779-4.655-12.757-9.432-12.293-11.866.789-4.152,6.335-7.047,10.822-7.047a7.567,7.567,0,0,1,3.22.646c5.3,2.479,10.075,3.74,14.2,3.74,5.692,0,8.179-2.392,8.483-2.706-.15-2.7-.328-5.514-.51-8.423-1.187-18.83-2.661-42.238,3.3-55.6C176.534,102.4,214.4,99.283,225.589,99.283c.286,0,4.9-.049,4.9-.049h.66c11.207,0,49.167,3.115,67.033,43.181,5.961,13.365,4.487,36.79,3.3,55.61l-.052.821c-.164,2.619-.325,5.165-.457,7.606.286.293,2.574,2.49,7.732,2.689h0a35.614,35.614,0,0,0,13.382-3.716,10.01,10.01,0,0,1,4.152-.824,12.765,12.765,0,0,1,4.781.911l.091.038c4,1.418,6.621,4.219,6.677,7.152.052,2.759-2.057,6.908-12.387,10.99-1.072.423-2.441.856-3.894,1.317-5.909,1.872-14.821,4.708-17.555,11.144-1.491,3.52-1.016,7.805,1.425,12.747.021.049.045.094.066.143.74,1.729,18.586,42.437,58.445,49.006a2.921,2.921,0,0,1,2.441,3.042,4.889,4.889,0,0,1-.405,1.669Zm0,0" fill="#f7f7fb"/>
</svg>
