<svg xmlns="http://www.w3.org/2000/svg" width="763.854" height="534.821" viewBox="0 0 763.854 534.821">
  <path id="youtube" d="M748.117,77.6a95.694,95.694,0,0,0-67.322-67.332C621.02-6.082,381.919-6.082,381.919-6.082s-239.092,0-298.866,15.735c-32.09,8.8-58.52,35.232-67.322,67.952C0,137.374,0,261.329,0,261.329s0,124.579,15.73,183.724A95.71,95.71,0,0,0,83.058,512.38c60.4,16.36,298.87,16.36,298.87,16.36s239.092,0,298.866-15.735a95.7,95.7,0,0,0,67.332-67.322c15.726-59.774,15.726-183.724,15.726-183.724s.629-124.584-15.735-184.353ZM305.794,375.841V146.815L504.618,261.328Zm0,0" transform="translate(-0.001 6.082)" fill="#f7f7fb"/>
</svg>
